<svg width="64" height="64" viewBox="0 0 64 64" fill="none" xmlns="http://www.w3.org/2000/svg">
<g clip-path="url(#clip0_6569_40292)">
<path d="M21.9645 17.4679L28.9773 13.2227L58.1829 30.0269L51.17 34.2722L21.9645 17.4679Z" fill="#66E3C4"/>
<path d="M28.9773 12.8672L21.3431 17.3778L51.17 34.5358L58.8042 30.0252L28.9773 12.8672ZM51.17 34.2705L21.9645 17.4662L28.9773 13.3094L58.1828 30.1137L51.17 34.2705Z" fill="white"/>
<path d="M51.17 34.6229L21.3431 17.4648L17.2596 24.0981L48.4181 42.4059L51.17 34.6229Z" fill="#0ABB92"/>
<path d="M58.7155 30.0234L51.17 34.6225L48.4181 42.4055L62 34.0034L58.7155 30.0234Z" fill="white"/>
<path d="M48.4181 45.9432L17.2596 27.9892V24.0977L48.4181 42.4054V45.9432Z" fill="#0ABB92"/>
<path d="M48.4181 45.9438L62 37.8954V34.0039L48.4181 42.406V45.9438Z" fill="#66E3C4"/>
<path d="M33.2383 23.9245L34.2148 24.5436V16.3183L33.2383 15.6992V23.9245Z" fill="white"/>
<path d="M45.3111 30.9088L48.3293 32.6777V24.4525L45.3111 22.6836V30.9088Z" fill="white"/>
<path d="M34.8362 24.8502L37.8544 26.6191V18.3939L34.8362 16.625V24.8502Z" fill="white"/>
<path d="M50.016 33.651L51.17 34.2701L52.0577 33.7395V26.5755L50.016 25.4258V33.651Z" fill="white"/>
<path d="M21.9645 17.4679L28.9773 13.2227L58.1829 30.0269L51.17 34.2722L21.9645 17.4679Z" fill="#66E3C4"/>
<path d="M28.9773 12.8672L21.3431 17.3778L51.17 34.5358L58.8042 30.0252L28.9773 12.8672ZM51.17 34.2705L21.9645 17.4662L28.9773 13.3094L58.1828 30.1137L51.17 34.2705Z" fill="white"/>
<path d="M51.17 34.6229L21.3431 17.4648L17.2596 24.0981L48.4181 42.4059L51.17 34.6229Z" fill="#0ABB92"/>
<path d="M58.7155 30.0234L51.17 34.6225L48.4181 42.4055L62 34.0034L58.7155 30.0234Z" fill="white"/>
<path d="M48.4181 45.9432L17.2596 27.9892V24.0977L48.4181 42.4054V45.9432Z" fill="#0ABB92"/>
<path d="M48.4181 45.9438L62 37.8954V34.0039L48.4181 42.406V45.9438Z" fill="#66E3C4"/>
<path d="M33.2383 23.9245L34.2148 24.5436V16.3183L33.2383 15.6992V23.9245Z" fill="white"/>
<path d="M45.3111 30.9088L48.3293 32.6777V24.4525L45.3111 22.6836V30.9088Z" fill="white"/>
<path d="M34.8362 24.8502L37.8544 26.6191V18.3939L34.8362 16.625V24.8502Z" fill="white"/>
<path d="M50.016 33.651L51.17 34.2701L52.0577 33.7395V26.5755L50.016 25.4258V33.651Z" fill="white"/>
<path d="M6.70483 26.4342L13.7177 22.2773L42.9232 39.0816L35.9103 43.2384L6.70483 26.4342Z" fill="#66E3C4"/>
<path d="M13.7177 21.9219L6.08344 26.4325L35.9103 43.5905L43.5446 39.0799L13.7177 21.9219ZM35.9103 43.2367L6.70483 26.4325L13.7177 22.2756L42.9232 39.0799L35.9103 43.2367V43.2367Z" fill="white"/>
<path d="M35.9103 43.5916L6.08344 26.4336L2 33.1553L33.1585 51.3746L35.9103 43.5916Z" fill="#0ABB92"/>
<path d="M43.5446 39.0781L35.9103 43.5887L33.1584 51.3718L46.8291 43.0581L43.5446 39.0781Z" fill="white"/>
<path d="M33.1585 54.9979L2 37.0439V33.1523L33.1585 51.3717V54.9979Z" fill="#0ABB92"/>
<path d="M33.1584 54.9985L46.8291 46.8617V43.0586L33.1584 51.3723V54.9985Z" fill="#66E3C4"/>
<path d="M13.6289 30.4141L15.6707 31.5639V23.4271L13.7177 22.2773L13.6289 22.3658V30.4141Z" fill="white"/>
<path d="M14.8007 14.3159L21.3875 10.3359L48.8176 26.1142L42.2308 30.103L14.8007 14.3159Z" fill="#66E3C4"/>
<path d="M21.3875 10L14.2237 14.2364L42.2308 30.3508L49.4035 26.1144L21.3875 10ZM42.2308 30.1032L14.8007 14.316L21.3875 10.4157L48.8176 26.194L42.2308 30.0943V30.1032Z" fill="white"/>
<path d="M42.2308 30.4308L14.2237 14.3164L10.3888 20.5517L39.6476 37.7451L42.2308 30.4308Z" fill="#0ABB92"/>
<path d="M49.3147 26.1133L42.2308 30.4293L39.6476 37.7436L52.4039 29.8544L49.3147 26.1133Z" fill="white"/>
<path d="M39.6476 41.0608L10.3888 24.2035V20.5508L39.6476 37.7442V41.0608Z" fill="#0ABB92"/>
<path d="M39.6476 41.0612L52.4039 33.5082V29.8555L39.6476 37.7446V41.0612Z" fill="#66E3C4"/>
<path d="M25.3911 20.3852L26.3054 20.9689V13.2389L25.3911 12.6641V20.3852Z" fill="white"/>
<path d="M36.7271 26.9448L39.5677 28.6075V20.8776L36.7271 19.2148V26.9448Z" fill="white"/>
<path d="M26.8913 21.2602L29.723 22.9229V15.2018L26.8913 13.5391V21.2602Z" fill="white"/>
<path d="M41.1478 29.518L42.2308 30.1017L43.0653 29.5976V22.8759L41.1478 21.7969V29.518Z" fill="white"/>
</g>
<defs>
<clipPath id="clip0_6569_40292">
<rect width="60" height="45" fill="white" transform="translate(2 10)"/>
</clipPath>
</defs>
</svg>
